STARTFONT 2.1
FONT -Linotype-Helvetica-Bold-O-Narrow-Sans-14-140-72-72-P-64-ISO8859-1
SIZE 14 72 72
FONTBOUNDINGBOX 14 18 -2 -3

STARTPROPERTIES 22
FONTNAME_REGISTRY "-"
FOUNDRY "Linotype"
FAMILY_NAME "Helvetica"
WEIGHT_NAME "Bold"
SLANT "O"
SETWIDTH_NAME "Narrow"
ADD_STYLE_NAME "Sans"
SPACING "P"
CHARSET_REGISTRY "ISO8859"
CHARSET_ENCODING "1"
PIXEL_SIZE 14
POINT_SIZE 140
RESOLUTION_X 72
RESOLUTION_Y 72
AVERAGE_WIDTH 64
FULL_NAME "Helvetica-Narrow-BoldOblique"
WEIGHT 10
X_HEIGHT 8
QUAD_WIDTH 7
DEFAULT_CHAR 32
FONT_DESCENT 3
FONT_ASCENT 15
ENDPROPERTIES

CHARS 190

STARTCHAR space
ENCODING 32
SWIDTH 228 0
DWIDTH 3 0
BBX 1 1 0 0
BITMAP
00
ENDCHAR

STARTCHAR exclam
ENCODING 33
SWIDTH 273 0
DWIDTH 4 0
BBX 4 11 1 0
BITMAP
30
30
30
30
60
60
60
60
00
C0
C0
ENDCHAR

STARTCHAR quotedbl
ENCODING 34
SWIDTH 389 0
DWIDTH 5 0
BBX 5 4 1 7
BITMAP
D8
D8
90
90
ENDCHAR

STARTCHAR numbersign
ENCODING 35
SWIDTH 456 0
DWIDTH 6 0
BBX 7 11 0 0
BITMAP
14
14
14
7E
7E
28
FC
FC
50
50
50
ENDCHAR

STARTCHAR dollar
ENCODING 36
SWIDTH 456 0
DWIDTH 6 0
BBX 7 13 1 -1
BITMAP
0C
1C
3E
76
70
70
38
1C
1C
DC
F8
70
60
ENDCHAR

STARTCHAR percent
ENCODING 37
SWIDTH 729 0
DWIDTH 10 0
BBX 9 11 0 0
BITMAP
6300
D200
9600
B400
6C00
1800
1300
3680
2480
6580
4300
ENDCHAR

STARTCHAR ampersand
ENCODING 38
SWIDTH 592 0
DWIDTH 8 0
BBX 7 11 0 0
BITMAP
1C
3E
36
3C
38
7E
EE
CC
DC
FE
76
ENDCHAR

STARTCHAR quoteright
ENCODING 39
SWIDTH 228 0
DWIDTH 3 0
BBX 2 4 1 7
BITMAP
C0
C0
40
80
ENDCHAR

STARTCHAR parenleft
ENCODING 40
SWIDTH 273 0
DWIDTH 4 0
BBX 5 14 0 -3
BITMAP
18
30
60
60
60
C0
C0
C0
C0
C0
C0
C0
60
60
ENDCHAR

STARTCHAR parenright
ENCODING 41
SWIDTH 273 0
DWIDTH 4 0
BBX 5 14 -1 -3
BITMAP
30
30
18
18
18
18
18
18
18
30
30
30
60
C0
ENDCHAR

STARTCHAR asterisk
ENCODING 42
SWIDTH 319 0
DWIDTH 4 0
BBX 4 4 1 6
BITMAP
20
F0
60
A0
ENDCHAR

STARTCHAR plus
ENCODING 43
SWIDTH 479 0
DWIDTH 7 0
BBX 6 8 0 0
BITMAP
30
30
30
FC
FC
30
30
30
ENDCHAR

STARTCHAR comma
ENCODING 44
SWIDTH 228 0
DWIDTH 3 0
BBX 2 4 0 -2
BITMAP
C0
C0
40
80
ENDCHAR

STARTCHAR minus
ENCODING 45
SWIDTH 479 0
DWIDTH 7 0
BBX 6 2 1 3
BITMAP
FC
FC
ENDCHAR

STARTCHAR period
ENCODING 46
SWIDTH 228 0
DWIDTH 3 0
BBX 2 2 1 0
BITMAP
C0
C0
ENDCHAR

STARTCHAR slash
ENCODING 47
SWIDTH 228 0
DWIDTH 3 0
BBX 5 11 0 0
BITMAP
08
18
10
10
30
20
60
40
40
C0
80
ENDCHAR

STARTCHAR zero
ENCODING 48
SWIDTH 456 0
DWIDTH 6 0
BBX 6 11 0 0
BITMAP
38
7C
6C
CC
CC
CC
CC
CC
D8
F8
70
ENDCHAR

STARTCHAR one
ENCODING 49
SWIDTH 456 0
DWIDTH 6 0
BBX 4 11 1 0
BITMAP
30
70
F0
30
30
30
60
60
60
60
60
ENDCHAR

STARTCHAR two
ENCODING 50
SWIDTH 456 0
DWIDTH 6 0
BBX 6 11 0 0
BITMAP
38
7C
6C
6C
0C
18
38
70
E0
F8
F8
ENDCHAR

STARTCHAR three
ENCODING 51
SWIDTH 456 0
DWIDTH 6 0
BBX 6 11 0 0
BITMAP
38
7C
6C
6C
1C
38
1C
CC
DC
F8
70
ENDCHAR

STARTCHAR four
ENCODING 52
SWIDTH 456 0
DWIDTH 6 0
BBX 6 11 0 0
BITMAP
0C
1C
3C
3C
6C
6C
D8
FC
FC
18
18
ENDCHAR

STARTCHAR five
ENCODING 53
SWIDTH 456 0
DWIDTH 6 0
BBX 6 11 0 0
BITMAP
3C
7C
60
70
F8
DC
0C
CC
D8
F8
70
ENDCHAR

STARTCHAR six
ENCODING 54
SWIDTH 456 0
DWIDTH 6 0
BBX 6 11 0 0
BITMAP
38
7C
6C
C0
F0
F8
D8
D8
D8
F0
60
ENDCHAR

STARTCHAR seven
ENCODING 55
SWIDTH 456 0
DWIDTH 6 0
BBX 6 11 2 0
BITMAP
7C
7C
1C
18
30
30
60
60
E0
C0
C0
ENDCHAR

STARTCHAR eight
ENCODING 56
SWIDTH 456 0
DWIDTH 6 0
BBX 6 11 0 0
BITMAP
18
3C
6C
6C
78
70
F8
D8
D8
F8
70
ENDCHAR

STARTCHAR nine
ENCODING 57
SWIDTH 456 0
DWIDTH 6 0
BBX 6 11 0 0
BITMAP
18
3C
6C
6C
6C
7C
3C
0C
D8
F8
70
ENDCHAR

STARTCHAR colon
ENCODING 58
SWIDTH 273 0
DWIDTH 4 0
BBX 3 7 1 0
BITMAP
60
60
00
00
00
C0
C0
ENDCHAR

STARTCHAR semicolon
ENCODING 59
SWIDTH 273 0
DWIDTH 4 0
BBX 3 8 1 -2
BITMAP
60
60
00
00
C0
C0
40
80
ENDCHAR

STARTCHAR less
ENCODING 60
SWIDTH 479 0
DWIDTH 7 0
BBX 6 7 0 0
BITMAP
04
1C
78
E0
78
1C
04
ENDCHAR

STARTCHAR equal
ENCODING 61
SWIDTH 479 0
DWIDTH 7 0
BBX 6 5 0 1
BITMAP
FC
FC
00
FC
FC
ENDCHAR

STARTCHAR greater
ENCODING 62
SWIDTH 479 0
DWIDTH 7 0
BBX 6 7 0 0
BITMAP
80
E0
78
1C
78
E0
80
ENDCHAR

STARTCHAR question
ENCODING 63
SWIDTH 501 0
DWIDTH 7 0
BBX 6 11 1 0
BITMAP
38
7C
CC
CC
1C
38
70
60
00
60
60
ENDCHAR

STARTCHAR at
ENCODING 64
SWIDTH 800 0
DWIDTH 11 0
BBX 10 14 0 -3
BITMAP
0700
0D80
1880
37C0
6D40
5B40
D240
B6C0
A480
BD80
D700
4000
6600
3C00
ENDCHAR

STARTCHAR A
ENCODING 65
SWIDTH 592 0
DWIDTH 8 0
BBX 7 11 0 0
BITMAP
0C
0C
1C
1C
1C
36
36
7E
7E
C6
C6
ENDCHAR

STARTCHAR B
ENCODING 66
SWIDTH 592 0
DWIDTH 8 0
BBX 8 11 0 0
BITMAP
7E
7F
63
63
7E
7C
C6
C6
C6
FE
FC
ENDCHAR

STARTCHAR C
ENCODING 67
SWIDTH 592 0
DWIDTH 8 0
BBX 8 11 0 0
BITMAP
1E
3F
73
63
C0
C0
C0
C6
C6
7C
7C
ENDCHAR

STARTCHAR D
ENCODING 68
SWIDTH 592 0
DWIDTH 8 0
BBX 8 11 0 0
BITMAP
7E
7F
63
63
63
63
C3
C6
C6
FE
FC
ENDCHAR

STARTCHAR E
ENCODING 69
SWIDTH 547 0
DWIDTH 8 0
BBX 8 11 0 0
BITMAP
7F
7F
60
60
7E
7E
C0
C0
C0
FE
FE
ENDCHAR

STARTCHAR F
ENCODING 70
SWIDTH 501 0
DWIDTH 7 0
BBX 7 11 0 0
BITMAP
7E
7E
60
60
7C
7C
C0
C0
C0
C0
C0
ENDCHAR

STARTCHAR G
ENCODING 71
SWIDTH 638 0
DWIDTH 9 0
BBX 9 11 0 0
BITMAP
1F00
3F80
7180
6180
C000
CF00
CF00
C300
E700
7E00
3E00
ENDCHAR

STARTCHAR H
ENCODING 72
SWIDTH 592 0
DWIDTH 8 0
BBX 8 11 0 0
BITMAP
63
63
63
63
7F
7E
C6
C6
C6
C6
C6
ENDCHAR

STARTCHAR I
ENCODING 73
SWIDTH 228 0
DWIDTH 3 0
BBX 3 11 0 0
BITMAP
60
60
60
60
60
60
C0
C0
C0
C0
C0
ENDCHAR

STARTCHAR J
ENCODING 74
SWIDTH 456 0
DWIDTH 6 0
BBX 6 11 0 0
BITMAP
0C
0C
0C
0C
0C
18
D8
D8
D8
F8
70
ENDCHAR

STARTCHAR K
ENCODING 75
SWIDTH 592 0
DWIDTH 8 0
BBX 8 11 0 0
BITMAP
63
67
6E
7C
78
78
FC
EC
CE
C6
C6
ENDCHAR

STARTCHAR L
ENCODING 76
SWIDTH 501 0
DWIDTH 7 0
BBX 6 11 0 0
BITMAP
60
60
60
60
60
60
C0
C0
C0
FC
FC
ENDCHAR

STARTCHAR M
ENCODING 77
SWIDTH 683 0
DWIDTH 9 0
BBX 9 11 0 0
BITMAP
6180
6180
6180
7380
7380
7700
FF00
DF00
DB00
DB00
DB00
ENDCHAR

STARTCHAR N
ENCODING 78
SWIDTH 592 0
DWIDTH 8 0
BBX 8 11 0 0
BITMAP
63
63
73
73
7B
7F
CE
CE
CE
C6
C6
ENDCHAR

STARTCHAR O
ENCODING 79
SWIDTH 638 0
DWIDTH 9 0
BBX 9 11 0 0
BITMAP
1E00
3F00
7380
6180
E180
C180
C380
C300
E600
7E00
3C00
ENDCHAR

STARTCHAR P
ENCODING 80
SWIDTH 547 0
DWIDTH 8 0
BBX 8 11 0 0
BITMAP
7E
7F
63
63
66
7E
7C
C0
C0
C0
C0
ENDCHAR

STARTCHAR Q
ENCODING 81
SWIDTH 638 0
DWIDTH 9 0
BBX 9 11 0 0
BITMAP
1E00
3F00
7380
6180
E180
C180
DB00
DF00
EE00
7F00
3B00
ENDCHAR

STARTCHAR R
ENCODING 82
SWIDTH 592 0
DWIDTH 8 0
BBX 8 11 0 0
BITMAP
7E
7F
63
63
63
7E
7C
C6
C6
C6
C6
ENDCHAR

STARTCHAR S
ENCODING 83
SWIDTH 547 0
DWIDTH 8 0
BBX 8 11 0 0
BITMAP
1E
3F
73
63
78
3E
0E
C6
CE
FC
78
ENDCHAR

STARTCHAR T
ENCODING 84
SWIDTH 501 0
DWIDTH 7 0
BBX 6 11 1 0
BITMAP
FC
FC
30
30
30
30
30
60
60
60
60
ENDCHAR

STARTCHAR U
ENCODING 85
SWIDTH 592 0
DWIDTH 8 0
BBX 8 11 0 0
BITMAP
63
63
63
63
63
63
C6
C6
C6
FC
78
ENDCHAR

STARTCHAR V
ENCODING 86
SWIDTH 547 0
DWIDTH 8 0
BBX 7 11 1 0
BITMAP
C6
C6
CC
CC
DC
78
70
70
70
60
60
ENDCHAR

STARTCHAR W
ENCODING 87
SWIDTH 774 0
DWIDTH 11 0
BBX 10 11 1 0
BITMAP
CCC0
CCC0
CCC0
DD80
DD80
FD80
F700
7700
6700
6600
6600
ENDCHAR

STARTCHAR X
ENCODING 88
SWIDTH 547 0
DWIDTH 8 0
BBX 8 11 0 0
BITMAP
33
33
36
3E
1C
18
3C
3C
6C
EE
C6
ENDCHAR

STARTCHAR Y
ENCODING 89
SWIDTH 547 0
DWIDTH 8 0
BBX 7 11 1 0
BITMAP
C6
CE
6C
78
78
30
30
60
60
60
60
ENDCHAR

STARTCHAR Z
ENCODING 90
SWIDTH 501 0
DWIDTH 7 0
BBX 7 11 0 0
BITMAP
7E
7E
0C
1C
18
38
30
70
60
FC
FC
ENDCHAR

STARTCHAR bracketleft
ENCODING 91
SWIDTH 273 0
DWIDTH 4 0
BBX 5 14 0 -3
BITMAP
38
30
30
30
60
60
60
60
60
C0
C0
C0
C0
E0
ENDCHAR

STARTCHAR backslash
ENCODING 92
SWIDTH 228 0
DWIDTH 3 0
BBX 2 11 1 0
BITMAP
80
80
80
80
80
C0
40
40
40
40
40
ENDCHAR

STARTCHAR bracketright
ENCODING 93
SWIDTH 273 0
DWIDTH 4 0
BBX 5 14 0 -3
BITMAP
38
18
18
18
30
30
30
30
30
60
60
60
60
E0
ENDCHAR

STARTCHAR asciicircum
ENCODING 94
SWIDTH 479 0
DWIDTH 7 0
BBX 5 6 1 5
BITMAP
38
38
78
78
D8
D8
ENDCHAR

STARTCHAR underscore
ENCODING 95
SWIDTH 456 0
DWIDTH 6 0
BBX 7 2 0 -3
BITMAP
FE
FE
ENDCHAR

STARTCHAR quoteleft
ENCODING 96
SWIDTH 228 0
DWIDTH 3 0
BBX 2 4 1 7
BITMAP
40
80
C0
C0
ENDCHAR

STARTCHAR a
ENCODING 97
SWIDTH 456 0
DWIDTH 6 0
BBX 6 8 0 0
BITMAP
38
7C
6C
3C
78
D8
F8
FC
ENDCHAR

STARTCHAR b
ENCODING 98
SWIDTH 501 0
DWIDTH 7 0
BBX 7 11 0 0
BITMAP
30
30
30
3C
7E
66
66
CC
CC
F8
F0
ENDCHAR

STARTCHAR c
ENCODING 99
SWIDTH 456 0
DWIDTH 6 0
BBX 6 8 0 0
BITMAP
38
7C
6C
60
C0
D8
F8
70
ENDCHAR

STARTCHAR d
ENCODING 100
SWIDTH 501 0
DWIDTH 7 0
BBX 7 11 1 0
BITMAP
06
06
06
3C
7C
EC
CC
D8
D8
F8
78
ENDCHAR

STARTCHAR e
ENCODING 101
SWIDTH 456 0
DWIDTH 6 0
BBX 6 8 0 0
BITMAP
38
7C
6C
FC
F8
C0
F8
70
ENDCHAR

STARTCHAR f
ENCODING 102
SWIDTH 273 0
DWIDTH 4 0
BBX 5 11 0 0
BITMAP
18
30
30
78
60
60
60
C0
C0
C0
C0
ENDCHAR

STARTCHAR g
ENCODING 103
SWIDTH 501 0
DWIDTH 7 0
BBX 7 11 0 -3
BITMAP
1E
3E
76
66
6C
6C
7C
3C
CC
F8
70
ENDCHAR

STARTCHAR h
ENCODING 104
SWIDTH 501 0
DWIDTH 7 0
BBX 7 11 0 0
BITMAP
30
30
30
7C
7E
66
66
CC
CC
CC
CC
ENDCHAR

STARTCHAR i
ENCODING 105
SWIDTH 228 0
DWIDTH 3 0
BBX 4 11 0 0
BITMAP
30
30
00
60
60
60
60
C0
C0
C0
C0
ENDCHAR

STARTCHAR j
ENCODING 106
SWIDTH 228 0
DWIDTH 3 0
BBX 6 14 -2 -3
BITMAP
0C
0C
00
18
18
18
18
30
30
30
30
60
60
C0
ENDCHAR

STARTCHAR k
ENCODING 107
SWIDTH 456 0
DWIDTH 6 0
BBX 6 11 0 0
BITMAP
30
30
30
6C
6C
78
70
F0
D8
D8
D8
ENDCHAR

STARTCHAR l
ENCODING 108
SWIDTH 228 0
DWIDTH 3 0
BBX 4 11 0 0
BITMAP
30
30
30
60
60
60
60
C0
C0
C0
C0
ENDCHAR

STARTCHAR m
ENCODING 109
SWIDTH 729 0
DWIDTH 11 0
BBX 11 8 0 0
BITMAP
7DC0
7FE0
6660
6660
CCC0
CCC0
CCC0
CCC0
ENDCHAR

STARTCHAR n
ENCODING 110
SWIDTH 501 0
DWIDTH 7 0
BBX 7 8 0 0
BITMAP
7C
7E
66
66
CC
CC
CC
CC
ENDCHAR

STARTCHAR o
ENCODING 111
SWIDTH 501 0
DWIDTH 7 0
BBX 7 8 0 0
BITMAP
3C
3E
66
66
CC
CC
F8
78
ENDCHAR

STARTCHAR p
ENCODING 112
SWIDTH 501 0
DWIDTH 7 0
BBX 8 11 -1 -3
BITMAP
3E
3F
33
33
66
66
7C
78
C0
C0
C0
ENDCHAR

STARTCHAR q
ENCODING 113
SWIDTH 501 0
DWIDTH 7 0
BBX 7 11 0 -3
BITMAP
3E
7E
66
66
CC
CC
FC
78
18
18
18
ENDCHAR

STARTCHAR r
ENCODING 114
SWIDTH 319 0
DWIDTH 4 0
BBX 5 8 0 0
BITMAP
78
70
60
60
C0
C0
C0
C0
ENDCHAR

STARTCHAR s
ENCODING 115
SWIDTH 456 0
DWIDTH 6 0
BBX 6 8 0 0
BITMAP
38
7C
6C
70
38
D8
F8
70
ENDCHAR

STARTCHAR t
ENCODING 116
SWIDTH 273 0
DWIDTH 4 0
BBX 5 11 0 0
BITMAP
30
30
30
78
60
60
60
C0
C0
C0
E0
ENDCHAR

STARTCHAR u
ENCODING 117
SWIDTH 501 0
DWIDTH 7 0
BBX 7 8 0 0
BITMAP
66
66
66
66
CC
CC
FC
FC
ENDCHAR

STARTCHAR v
ENCODING 118
SWIDTH 456 0
DWIDTH 6 0
BBX 5 8 1 0
BITMAP
D8
D8
D8
F0
F0
E0
C0
C0
ENDCHAR

STARTCHAR w
ENCODING 119
SWIDTH 638 0
DWIDTH 9 0
BBX 8 8 1 0
BITMAP
DB
DB
DB
FE
FE
EE
CC
CC
ENDCHAR

STARTCHAR x
ENCODING 120
SWIDTH 456 0
DWIDTH 6 0
BBX 6 8 0 0
BITMAP
6C
6C
78
38
70
78
D8
D8
ENDCHAR

STARTCHAR y
ENCODING 121
SWIDTH 456 0
DWIDTH 6 0
BBX 6 11 0 -3
BITMAP
6C
6C
6C
78
78
38
30
30
60
E0
C0
ENDCHAR

STARTCHAR z
ENCODING 122
SWIDTH 410 0
DWIDTH 6 0
BBX 6 8 0 0
BITMAP
7C
7C
18
38
30
60
F8
F8
ENDCHAR

STARTCHAR braceleft
ENCODING 123
SWIDTH 319 0
DWIDTH 4 0
BBX 5 14 0 -3
BITMAP
18
30
30
60
60
60
C0
60
60
C0
C0
C0
C0
60
ENDCHAR

STARTCHAR bar
ENCODING 124
SWIDTH 230 0
DWIDTH 3 0
BBX 3 14 1 -3
BITMAP
20
20
20
20
40
40
40
40
40
80
80
80
80
80
ENDCHAR

STARTCHAR braceright
ENCODING 125
SWIDTH 319 0
DWIDTH 4 0
BBX 5 14 -1 -3
BITMAP
30
18
18
18
30
30
18
30
30
30
30
60
60
C0
ENDCHAR

STARTCHAR asciitilde
ENCODING 126
SWIDTH 479 0
DWIDTH 7 0
BBX 6 3 0 2
BITMAP
6C
FC
D8
ENDCHAR

STARTCHAR exclamdown
ENCODING 161
SWIDTH 273 0
DWIDTH 4 0
BBX 4 11 0 -3
BITMAP
30
30
00
60
60
60
60
C0
C0
C0
C0
ENDCHAR

STARTCHAR cent
ENCODING 162
SWIDTH 456 0
DWIDTH 6 0
BBX 6 10 0 -1
BITMAP
10
38
7C
D4
D0
D0
D0
F8
70
20
ENDCHAR

STARTCHAR sterling
ENCODING 163
SWIDTH 456 0
DWIDTH 6 0
BBX 6 11 0 0
BITMAP
18
3C
6C
6C
60
F8
60
60
60
FC
F8
ENDCHAR

STARTCHAR currency
ENCODING 164
SWIDTH 456 0
DWIDTH 6 0
BBX 7 7 0 1
BITMAP
5A
3C
2C
6C
68
78
B4
ENDCHAR

STARTCHAR yen
ENCODING 165
SWIDTH 456 0
DWIDTH 6 0
BBX 7 11 0 0
BITMAP
E6
6C
6C
78
30
F8
30
F8
60
60
60
ENDCHAR

STARTCHAR brokenbar
ENCODING 166
SWIDTH 230 0
DWIDTH 3 0
BBX 3 14 0 -3
BITMAP
20
20
20
20
40
40
00
00
40
40
80
80
80
80
ENDCHAR

STARTCHAR section
ENCODING 167
SWIDTH 456 0
DWIDTH 6 0
BBX 6 14 0 -3
BITMAP
18
3C
34
30
70
78
58
68
78
38
30
B0
F0
60
ENDCHAR

STARTCHAR dieresis
ENCODING 168
SWIDTH 273 0
DWIDTH 4 0
BBX 5 2 0 9
BITMAP
D8
D8
ENDCHAR

STARTCHAR copyright
ENCODING 169
SWIDTH 604 0
DWIDTH 8 0
BBX 8 11 0 0
BITMAP
0C
32
41
5D
B5
A1
A1
BA
92
4C
30
ENDCHAR

STARTCHAR ordfeminine
ENCODING 170
SWIDTH 303 0
DWIDTH 4 0
BBX 4 7 1 4
BITMAP
70
30
60
E0
E0
00
E0
ENDCHAR

STARTCHAR guillemotleft
ENCODING 171
SWIDTH 456 0
DWIDTH 6 0
BBX 7 6 0 1
BITMAP
36
6C
D8
D8
6C
6C
ENDCHAR

STARTCHAR logicalnot
ENCODING 172
SWIDTH 479 0
DWIDTH 7 0
BBX 7 5 0 1
BITMAP
FE
FE
06
0C
0C
ENDCHAR

STARTCHAR hyphen
ENCODING 173
SWIDTH 273 0
DWIDTH 4 0
BBX 3 2 0 3
BITMAP
E0
E0
ENDCHAR

STARTCHAR registered
ENCODING 174
SWIDTH 604 0
DWIDTH 8 0
BBX 8 11 0 0
BITMAP
0C
32
41
5D
95
95
B9
AA
AA
4C
30
ENDCHAR

STARTCHAR macron
ENCODING 175
SWIDTH 273 0
DWIDTH 4 0
BBX 4 1 1 10
BITMAP
F0
ENDCHAR

STARTCHAR degree
ENCODING 176
SWIDTH 328 0
DWIDTH 7 0
BBX 4 5 2 6
BITMAP
70
F0
90
F0
E0
ENDCHAR

STARTCHAR plusminus
ENCODING 177
SWIDTH 479 0
DWIDTH 7 0
BBX 7 9 0 0
BITMAP
18
18
7E
7E
18
18
00
FC
FC
ENDCHAR

STARTCHAR twosuperior
ENCODING 178
SWIDTH 273 0
DWIDTH 4 0
BBX 4 6 1 5
BITMAP
70
50
10
60
80
E0
ENDCHAR

STARTCHAR threesuperior
ENCODING 179
SWIDTH 273 0
DWIDTH 4 0
BBX 4 6 0 5
BITMAP
60
10
60
10
A0
C0
ENDCHAR

STARTCHAR acute
ENCODING 180
SWIDTH 273 0
DWIDTH 4 0
BBX 3 2 1 9
BITMAP
60
C0
ENDCHAR

STARTCHAR mu
ENCODING 181
SWIDTH 501 0
DWIDTH 7 0
BBX 7 11 -1 -3
BITMAP
36
36
36
36
6C
6C
7C
6C
C0
C0
C0
ENDCHAR

STARTCHAR paragraph
ENCODING 182
SWIDTH 456 0
DWIDTH 6 0
BBX 5 14 0 -3
BITMAP
38
68
68
E8
E8
E8
E8
68
50
50
50
50
50
50
ENDCHAR

STARTCHAR periodcentered
ENCODING 183
SWIDTH 228 0
DWIDTH 6 0
BBX 2 2 2 5
BITMAP
C0
C0
ENDCHAR

STARTCHAR cedilla
ENCODING 184
SWIDTH 273 0
DWIDTH 4 0
BBX 3 3 0 -3
BITMAP
C0
60
C0
ENDCHAR

STARTCHAR onesuperior
ENCODING 185
SWIDTH 273 0
DWIDTH 4 0
BBX 2 6 1 5
BITMAP
40
C0
40
80
80
80
ENDCHAR

STARTCHAR ordmasculine
ENCODING 186
SWIDTH 299 0
DWIDTH 4 0
BBX 4 7 0 4
BITMAP
30
70
50
70
60
00
E0
ENDCHAR

STARTCHAR guillemotright
ENCODING 187
SWIDTH 456 0
DWIDTH 6 0
BBX 7 6 0 1
BITMAP
6C
6C
36
36
6C
D8
ENDCHAR

STARTCHAR onequarter
ENCODING 188
SWIDTH 684 0
DWIDTH 10 0
BBX 8 11 1 0
BITMAP
46
C4
4C
48
98
B1
23
65
4A
CF
82
ENDCHAR

STARTCHAR onehalf
ENCODING 189
SWIDTH 684 0
DWIDTH 10 0
BBX 8 11 1 0
BITMAP
44
CC
48
58
90
B6
25
61
46
C8
8E
ENDCHAR

STARTCHAR threequarters
ENCODING 190
SWIDTH 684 0
DWIDTH 10 0
BBX 9 11 0 0
BITMAP
6100
1300
6200
1600
A400
CC80
0980
1A80
1500
3780
2100
ENDCHAR

STARTCHAR questiondown
ENCODING 191
SWIDTH 501 0
DWIDTH 7 0
BBX 6 11 0 -3
BITMAP
18
18
00
18
38
70
E0
CC
CC
F8
70
ENDCHAR

STARTCHAR Agrave
ENCODING 192
SWIDTH 592 0
DWIDTH 8 0
BBX 7 14 0 0
BITMAP
18
0C
00
0C
0C
1C
1C
1C
36
36
7E
7E
C6
C6
ENDCHAR

STARTCHAR Aacute
ENCODING 193
SWIDTH 592 0
DWIDTH 8 0
BBX 7 14 0 0
BITMAP
06
0C
00
0C
0C
1C
1C
1C
36
36
7E
7E
C6
C6
ENDCHAR

STARTCHAR Acircumflex
ENCODING 194
SWIDTH 592 0
DWIDTH 8 0
BBX 7 14 0 0
BITMAP
0C
1E
00
0C
0C
1C
1C
1C
36
36
7E
7E
C6
C6
ENDCHAR

STARTCHAR Atilde
ENCODING 195
SWIDTH 592 0
DWIDTH 8 0
BBX 8 14 0 0
BITMAP
0D
16
00
0C
0C
1C
1C
1C
36
36
7E
7E
C6
C6
ENDCHAR

STARTCHAR Adieresis
ENCODING 196
SWIDTH 592 0
DWIDTH 8 0
BBX 8 14 0 0
BITMAP
1B
1B
00
0C
0C
1C
1C
1C
36
36
7E
7E
C6
C6
ENDCHAR

STARTCHAR Aring
ENCODING 197
SWIDTH 592 0
DWIDTH 8 0
BBX 7 15 0 0
BITMAP
0C
12
0C
00
0C
0C
1C
1C
1C
36
36
7E
7E
C6
C6
ENDCHAR

STARTCHAR AE
ENCODING 198
SWIDTH 820 0
DWIDTH 11 0
BBX 11 11 0 0
BITMAP
07E0
0FE0
0F00
1B00
1BC0
33C0
3600
7E00
7E00
C7C0
C7C0
ENDCHAR

STARTCHAR Ccedilla
ENCODING 199
SWIDTH 592 0
DWIDTH 8 0
BBX 8 14 0 -3
BITMAP
1E
3F
73
63
C0
C0
C0
C6
C6
7C
7C
30
18
30
ENDCHAR

STARTCHAR Egrave
ENCODING 200
SWIDTH 547 0
DWIDTH 8 0
BBX 8 14 0 0
BITMAP
18
0C
00
7F
7F
60
60
7E
7E
C0
C0
C0
FE
FE
ENDCHAR

STARTCHAR Eacute
ENCODING 201
SWIDTH 547 0
DWIDTH 8 0
BBX 8 14 0 0
BITMAP
06
0C
00
7F
7F
60
60
7E
7E
C0
C0
C0
FE
FE
ENDCHAR

STARTCHAR Ecircumflex
ENCODING 202
SWIDTH 547 0
DWIDTH 8 0
BBX 8 14 0 0
BITMAP
0C
1E
00
7F
7F
60
60
7E
7E
C0
C0
C0
FE
FE
ENDCHAR

STARTCHAR Edieresis
ENCODING 203
SWIDTH 547 0
DWIDTH 8 0
BBX 8 14 0 0
BITMAP
36
36
00
7F
7F
60
60
7E
7E
C0
C0
C0
FE
FE
ENDCHAR

STARTCHAR Igrave
ENCODING 204
SWIDTH 228 0
DWIDTH 3 0
BBX 3 14 0 0
BITMAP
C0
60
00
60
60
60
60
60
60
C0
C0
C0
C0
C0
ENDCHAR

STARTCHAR Iacute
ENCODING 205
SWIDTH 228 0
DWIDTH 3 0
BBX 4 14 0 0
BITMAP
30
60
00
60
60
60
60
60
60
C0
C0
C0
C0
C0
ENDCHAR

STARTCHAR Icircumflex
ENCODING 206
SWIDTH 228 0
DWIDTH 3 0
BBX 4 14 0 0
BITMAP
60
F0
00
60
60
60
60
60
60
C0
C0
C0
C0
C0
ENDCHAR

STARTCHAR Idieresis
ENCODING 207
SWIDTH 228 0
DWIDTH 3 0
BBX 5 14 0 0
BITMAP
D8
D8
00
60
60
60
60
60
60
C0
C0
C0
C0
C0
ENDCHAR

STARTCHAR Eth
ENCODING 208
SWIDTH 592 0
DWIDTH 8 0
BBX 8 11 0 0
BITMAP
7E
7F
63
63
FB
FB
63
C6
C6
FE
FC
ENDCHAR

STARTCHAR Ntilde
ENCODING 209
SWIDTH 592 0
DWIDTH 8 0
BBX 8 14 0 0
BITMAP
1A
2C
00
63
63
73
73
7B
7F
CE
CE
CE
C6
C6
ENDCHAR

STARTCHAR Ograve
ENCODING 210
SWIDTH 638 0
DWIDTH 9 0
BBX 9 14 0 0
BITMAP
1800
0C00
0000
1E00
3F00
7380
6180
E180
C180
C380
C300
E700
7E00
3C00
ENDCHAR

STARTCHAR Oacute
ENCODING 211
SWIDTH 638 0
DWIDTH 9 0
BBX 9 14 0 0
BITMAP
0600
0C00
0000
1E00
3F00
7380
6180
E180
C180
C380
C300
E700
7E00
3C00
ENDCHAR

STARTCHAR Ocircumflex
ENCODING 212
SWIDTH 638 0
DWIDTH 9 0
BBX 9 14 0 0
BITMAP
0C00
1E00
0000
1E00
3F00
7380
6180
E180
C180
C380
C300
E700
7E00
3C00
ENDCHAR

STARTCHAR Otilde
ENCODING 213
SWIDTH 638 0
DWIDTH 9 0
BBX 9 14 0 0
BITMAP
0D00
1600
0000
1E00
3F00
7380
6180
E180
C180
C380
C300
E700
7E00
3C00
ENDCHAR

STARTCHAR Odieresis
ENCODING 214
SWIDTH 638 0
DWIDTH 9 0
BBX 9 14 0 0
BITMAP
1B00
1B00
0000
1E00
3F00
7380
6180
E180
C180
C380
C300
E700
7E00
3C00
ENDCHAR

STARTCHAR multiply
ENCODING 215
SWIDTH 479 0
DWIDTH 7 0
BBX 6 6 1 0
BITMAP
48
7C
78
70
F8
D0
ENDCHAR

STARTCHAR Oslash
ENCODING 216
SWIDTH 638 0
DWIDTH 9 0
BBX 9 11 0 0
BITMAP
1F80
3F00
7380
6780
ED80
C980
DB80
D300
F700
7E00
FC00
ENDCHAR

STARTCHAR Ugrave
ENCODING 217
SWIDTH 592 0
DWIDTH 8 0
BBX 8 14 0 0
BITMAP
18
0C
00
63
63
63
63
63
63
C6
C6
C6
FC
78
ENDCHAR

STARTCHAR Uacute
ENCODING 218
SWIDTH 592 0
DWIDTH 8 0
BBX 8 14 0 0
BITMAP
06
0C
00
63
63
63
63
63
63
C6
C6
C6
FC
78
ENDCHAR

STARTCHAR Ucircumflex
ENCODING 219
SWIDTH 592 0
DWIDTH 8 0
BBX 8 14 0 0
BITMAP
0C
1E
00
63
63
63
63
63
63
C6
C6
C6
FC
78
ENDCHAR

STARTCHAR Udieresis
ENCODING 220
SWIDTH 592 0
DWIDTH 8 0
BBX 8 14 0 0
BITMAP
36
36
00
63
63
63
63
63
63
C6
C6
C6
FC
78
ENDCHAR

STARTCHAR Yacute
ENCODING 221
SWIDTH 547 0
DWIDTH 8 0
BBX 7 14 1 0
BITMAP
0C
18
00
C6
CE
6C
78
78
30
30
60
60
60
60
ENDCHAR

STARTCHAR Thorn
ENCODING 222
SWIDTH 547 0
DWIDTH 8 0
BBX 7 11 0 0
BITMAP
30
30
30
7C
7E
66
66
7C
F8
C0
C0
ENDCHAR

STARTCHAR germandbls
ENCODING 223
SWIDTH 501 0
DWIDTH 7 0
BBX 7 11 0 0
BITMAP
1C
3E
66
66
6C
78
DC
CC
CC
DC
D8
ENDCHAR

STARTCHAR agrave
ENCODING 224
SWIDTH 456 0
DWIDTH 6 0
BBX 6 11 0 0
BITMAP
18
0C
00
38
7C
6C
3C
78
D8
F8
FC
ENDCHAR

STARTCHAR aacute
ENCODING 225
SWIDTH 456 0
DWIDTH 6 0
BBX 6 11 0 0
BITMAP
0C
18
00
38
7C
6C
3C
78
D8
F8
FC
ENDCHAR

STARTCHAR acircumflex
ENCODING 226
SWIDTH 456 0
DWIDTH 6 0
BBX 6 11 0 0
BITMAP
18
3C
00
38
7C
6C
3C
78
D8
F8
FC
ENDCHAR

STARTCHAR atilde
ENCODING 227
SWIDTH 456 0
DWIDTH 6 0
BBX 7 11 0 0
BITMAP
1A
2C
00
38
7C
6C
3C
78
D8
F8
FC
ENDCHAR

STARTCHAR adieresis
ENCODING 228
SWIDTH 456 0
DWIDTH 6 0
BBX 6 11 0 0
BITMAP
6C
6C
00
38
7C
6C
3C
78
D8
F8
FC
ENDCHAR

STARTCHAR aring
ENCODING 229
SWIDTH 456 0
DWIDTH 6 0
BBX 6 12 0 0
BITMAP
18
24
18
00
38
7C
6C
3C
7C
D8
F8
FC
ENDCHAR

STARTCHAR ae
ENCODING 230
SWIDTH 729 0
DWIDTH 10 0
BBX 10 8 0 0
BITMAP
3B80
7FC0
6CC0
3FC0
7F80
CC00
FF80
FF00
ENDCHAR

STARTCHAR ccedilla
ENCODING 231
SWIDTH 456 0
DWIDTH 6 0
BBX 6 11 0 -3
BITMAP
38
7C
6C
60
C0
D8
F8
70
60
30
60
ENDCHAR

STARTCHAR egrave
ENCODING 232
SWIDTH 456 0
DWIDTH 6 0
BBX 6 11 0 0
BITMAP
30
18
00
38
7C
6C
FC
F8
C0
F8
70
ENDCHAR

STARTCHAR eacute
ENCODING 233
SWIDTH 456 0
DWIDTH 6 0
BBX 6 11 0 0
BITMAP
0C
18
00
38
7C
6C
FC
F8
C0
F8
70
ENDCHAR

STARTCHAR ecircumflex
ENCODING 234
SWIDTH 456 0
DWIDTH 6 0
BBX 6 11 0 0
BITMAP
18
3C
00
38
7C
6C
FC
F8
C0
F8
70
ENDCHAR

STARTCHAR edieresis
ENCODING 235
SWIDTH 456 0
DWIDTH 6 0
BBX 6 11 0 0
BITMAP
6C
6C
00
38
7C
6C
FC
F8
C0
F8
70
ENDCHAR

STARTCHAR igrave
ENCODING 236
SWIDTH 228 0
DWIDTH 3 0
BBX 3 11 0 0
BITMAP
C0
60
00
60
60
60
60
C0
C0
C0
C0
ENDCHAR

STARTCHAR iacute
ENCODING 237
SWIDTH 228 0
DWIDTH 3 0
BBX 4 11 0 0
BITMAP
30
60
00
60
60
60
60
C0
C0
C0
C0
ENDCHAR

STARTCHAR icircumflex
ENCODING 238
SWIDTH 228 0
DWIDTH 3 0
BBX 4 11 0 0
BITMAP
60
F0
00
60
60
60
60
C0
C0
C0
C0
ENDCHAR

STARTCHAR idieresis
ENCODING 239
SWIDTH 228 0
DWIDTH 3 0
BBX 5 11 0 0
BITMAP
D8
D8
00
60
60
60
60
C0
C0
C0
C0
ENDCHAR

STARTCHAR eth
ENCODING 240
SWIDTH 501 0
DWIDTH 7 0
BBX 7 11 0 0
BITMAP
3A
1C
2C
3E
3E
66
66
CC
CC
F8
78
ENDCHAR

STARTCHAR ntilde
ENCODING 241
SWIDTH 501 0
DWIDTH 7 0
BBX 7 11 0 0
BITMAP
1A
2C
00
7C
7E
66
66
CC
CC
CC
CC
ENDCHAR

STARTCHAR ograve
ENCODING 242
SWIDTH 501 0
DWIDTH 7 0
BBX 7 11 0 0
BITMAP
18
0C
00
3C
3E
66
66
CC
CC
F8
78
ENDCHAR

STARTCHAR oacute
ENCODING 243
SWIDTH 501 0
DWIDTH 7 0
BBX 7 11 0 0
BITMAP
0C
18
00
3C
3E
66
66
CC
CC
F8
78
ENDCHAR

STARTCHAR ocircumflex
ENCODING 244
SWIDTH 501 0
DWIDTH 7 0
BBX 7 11 0 0
BITMAP
18
3C
00
3C
3E
66
66
CC
CC
F8
78
ENDCHAR

STARTCHAR otilde
ENCODING 245
SWIDTH 501 0
DWIDTH 7 0
BBX 7 11 0 0
BITMAP
1A
2C
00
3C
3E
66
66
CC
CC
F8
78
ENDCHAR

STARTCHAR odieresis
ENCODING 246
SWIDTH 501 0
DWIDTH 7 0
BBX 7 11 0 0
BITMAP
36
36
00
3C
3E
66
66
CC
CC
F8
78
ENDCHAR

STARTCHAR divide
ENCODING 247
SWIDTH 479 0
DWIDTH 7 0
BBX 6 6 0 0
BITMAP
30
00
FC
FC
00
30
ENDCHAR

STARTCHAR oslash
ENCODING 248
SWIDTH 501 0
DWIDTH 7 0
BBX 7 8 0 0
BITMAP
3E
3E
6E
76
DC
EC
F8
F8
ENDCHAR

STARTCHAR ugrave
ENCODING 249
SWIDTH 501 0
DWIDTH 7 0
BBX 7 11 0 0
BITMAP
18
0C
00
66
66
66
66
CC
CC
FC
FC
ENDCHAR

STARTCHAR uacute
ENCODING 250
SWIDTH 501 0
DWIDTH 7 0
BBX 7 11 0 0
BITMAP
0C
18
00
66
66
66
66
CC
CC
FC
FC
ENDCHAR

STARTCHAR ucircumflex
ENCODING 251
SWIDTH 501 0
DWIDTH 7 0
BBX 7 11 0 0
BITMAP
18
3C
00
66
66
66
66
CC
CC
FC
FC
ENDCHAR

STARTCHAR udieresis
ENCODING 252
SWIDTH 501 0
DWIDTH 7 0
BBX 7 11 0 0
BITMAP
36
36
00
66
66
66
66
CC
CC
FC
FC
ENDCHAR

STARTCHAR yacute
ENCODING 253
SWIDTH 456 0
DWIDTH 6 0
BBX 6 14 0 -3
BITMAP
0C
18
00
6C
6C
6C
78
78
38
30
30
60
E0
C0
ENDCHAR

STARTCHAR thorn
ENCODING 254
SWIDTH 501 0
DWIDTH 7 0
BBX 8 14 -1 -3
BITMAP
18
18
18
3E
3F
33
33
66
66
7C
78
C0
C0
C0
ENDCHAR

STARTCHAR ydieresis
ENCODING 255
SWIDTH 456 0
DWIDTH 6 0
BBX 7 14 0 -3
BITMAP
36
36
00
6C
6C
6C
78
78
38
30
30
60
E0
C0
ENDCHAR
ENDFONT
